<svg xmlns="http://www.w3.org/2000/svg" viewBox="0 0 180 180" fill="none">
  <rect width="180" height="180" rx="40" fill="#7c3aed"/>
  <path
    d="M56 45h41.625c16.031 0 25.875 8.438 25.875 21.938 0 8.438-4.781 14.906-11.812 17.719v.562c9.562 2.531 15.187 9.562 15.187 19.687 0 14.344-10.969 24.469-28.125 24.469H56V45zm37.687 33.469c7.875 0 12.656-3.938 12.656-10.406 0-6.469-4.781-10.406-12.656-10.406H74.563v20.812h19.124zm3.094 36.281c8.719 0 14.062-4.5 14.062-11.812 0-7.313-5.343-11.813-14.062-11.813H74.563V114.75h22.218z"
    fill="#fff"
  />
</svg>
